# xmcd
# 
# Track frame offsets:
#     150
#     3550
#     24780
#     40825
#     67643
#     91965
#     114390
#     135485
#     154793
#     171343
#     188533
#     209435
#     242233
# 
# Disc length: 3463
# 
# Revision: 1
# Processed by: cddbd v1.5.2PL0 Copyright (c) Steve Scherf et al.
# Submitted via: BonkEnc v1.0.8
# 
DISCID=9b0d850d
DTITLE=森山良子 - The Jazz Singer
DYEAR=2003
DGENRE=Vocal
TTITLE0=Overture: My Blue Heaven
TTITLE1=Moonlight in Vermont
TTITLE2='S Wonderful
TTITLE3=Someone to Watch Over Me
TTITLE4=My Funny Valentine
TTITLE5=My Favorite Things
TTITLE6=Seven Steps to Heaven
TTITLE7=As Time Goes By
TTITLE8=Smile
TTITLE9=When She Loved Me
TTITLE10=Mr.Bojangles
TTITLE11=What Are You Doing the Rest of Your Life?
TTITLE12=Good Night
EXTD=YEAR: 2003
EXTT0=
EXTT1=
EXTT2=
EXTT3=
EXTT4=
EXTT5=
EXTT6=
EXTT7=
EXTT8=
EXTT9=
EXTT10=
EXTT11=
EXTT12=
PLAYORDER=
